# xmcd CD database file
# Generated: Sun Aug 17 04:26:26 2003 by KSCD
# 
# Track frame offsets:
#       150
#       21900
#       41925
#       63600
#       78675
#       95250
#       111300
#       127350
#       147000
#       164850
#       188400
#       215550
#
# Disc length: 3139 seconds
#
# Revision: 1
# Processed by: cddbd v1.4PL0 Copyright (c) Steve Scherf et al.
# Submitted via: Kscd 1.3.3
#
DISCID=ba0c410c
DTITLE=Michalis Rakintzis - ENTRANCE
DYEAR=1900
DGENRE=
TTITLE0=Entrance
TTITLE1=Diesthisi
TTITLE2=Tha Sinithiso
TTITLE3=Pes mou esy
TTITLE4=Apagogi
TTITLE5=To daktilidi
TTITLE6=Megala logia
TTITLE7=Moro mou faltso
TTITLE8=Fili mou apli
TTITLE9=Etsi ksafnika
TTITLE10=Tha synithiso INSTRUMENTAL
TTITLE11=
EXTD=
EXTT0=
EXTT1=
EXTT2=
EXTT3=
EXTT4=
EXTT5=
EXTT6=
EXTT7=
EXTT8=
EXTT9=
EXTT10=
EXTT11=
PLAYORDER=
